<svg width="212" height="118" viewBox="0 0 212 118" fill="none" xmlns="http://www.w3.org/2000/svg">
<path d="M139.754 63.6165C141.306 63.6581 142.534 64.971 142.506 66.5574C142.478 68.1437 141.204 69.4102 139.652 69.3944C138.1 69.3785 136.851 68.0863 136.853 66.4997C136.848 65.7189 137.154 64.9696 137.702 64.4253C138.25 63.881 138.991 63.5889 139.754 63.6165ZM139.754 68.7759C140.659 68.8145 141.497 68.2874 141.87 67.4438C142.243 66.6002 142.078 65.6093 141.452 64.9398C140.827 64.2703 139.866 64.0566 139.024 64.3996C138.183 64.7426 137.63 65.5737 137.627 66.4997C137.605 67.0924 137.819 67.6688 138.22 68.0977C138.62 68.5265 139.174 68.7712 139.754 68.7759ZM138.629 64.8747H139.822C140.614 64.8747 141.059 65.1276 141.059 65.8358C141.076 66.0669 140.994 66.294 140.836 66.4596C140.677 66.6252 140.457 66.7134 140.231 66.702L141.078 68.1183H140.416L139.643 66.7336H139.247V68.1183H138.629V64.881V64.8747ZM139.247 66.2278H139.804C140.156 66.2278 140.422 66.1709 140.422 65.7789C140.422 65.3869 140.057 65.3742 139.773 65.3742H139.247V66.2215V66.2278Z" fill="white"/>
<g filter="url(#filter0_d_11_13584)">
<path d="M13.616 65L6.224 43.208H10.992L17.232 61.8H15.408L21.68 43.208H26.384L18.96 65H13.616ZM33.701 65.288C32.1437 65.288 30.7677 64.9573 29.573 64.296C28.3997 63.6347 27.4823 62.696 26.821 61.48C26.181 60.264 25.861 58.8347 25.861 57.192C25.861 55.5707 26.181 54.1413 26.821 52.904C27.4823 51.6667 28.3997 50.7067 29.573 50.024C30.7677 49.32 32.1437 48.968 33.701 48.968C35.301 48.968 36.6877 49.3307 37.861 50.056C39.0343 50.7813 39.941 51.7627 40.581 53C41.221 54.216 41.541 55.592 41.541 57.128C41.541 57.4053 41.5303 57.672 41.509 57.928C41.4877 58.184 41.4663 58.3867 41.445 58.536H29.509V55.208H37.861L37.317 56.584C37.317 55.4107 37.0183 54.4507 36.421 53.704C35.845 52.9573 34.949 52.584 33.733 52.584C32.645 52.584 31.7703 52.9147 31.109 53.576C30.469 54.2373 30.149 55.112 30.149 56.2V57.96C30.149 59.1333 30.4797 60.0507 31.141 60.712C31.8237 61.352 32.7623 61.672 33.957 61.672C34.9597 61.672 35.749 61.4693 36.325 61.064C36.9223 60.6587 37.4237 60.1573 37.829 59.56L40.997 61.32C40.3143 62.5787 39.3543 63.56 38.117 64.264C36.8797 64.9467 35.4077 65.288 33.701 65.288ZM47.3388 49.352L48.5548 53.672V65H43.8828V49.352H47.3388ZM47.5308 56.264L46.7308 55.912V52.296L47.0188 51.912C47.2748 51.5493 47.6374 51.1333 48.1068 50.664C48.5974 50.1947 49.1628 49.8 49.8028 49.48C50.4641 49.1387 51.1361 48.968 51.8188 48.968C52.1601 48.968 52.4694 48.9893 52.7468 49.032C53.0241 49.0747 53.2481 49.1493 53.4188 49.256V53.512H52.3628C50.9974 53.512 49.9201 53.736 49.1308 54.184C48.3628 54.6107 47.8294 55.304 47.5308 56.264ZM62.7658 65.256C61.0378 65.256 59.6724 64.8293 58.6698 63.976C57.6884 63.1227 57.1978 61.7253 57.1978 59.784V49.544L57.1338 49.352L58.0938 45.576H61.8698V58.76C61.8698 59.4853 62.0404 60.008 62.3818 60.328C62.7231 60.6267 63.1711 60.776 63.7258 60.776C64.0458 60.776 64.3444 60.7547 64.6218 60.712C64.9204 60.648 65.1658 60.584 65.3578 60.52V64.904C64.9951 65.0107 64.6004 65.096 64.1738 65.16C63.7684 65.224 63.2991 65.256 62.7658 65.256ZM54.7658 53.64V49.352H65.3578V53.64H54.7658ZM75.1698 65.288C73.6124 65.288 72.2364 64.9573 71.0418 64.296C69.8684 63.6347 68.9511 62.696 68.2898 61.48C67.6498 60.264 67.3298 58.8347 67.3298 57.192C67.3298 55.5707 67.6498 54.1413 68.2898 52.904C68.9511 51.6667 69.8684 50.7067 71.0418 50.024C72.2364 49.32 73.6124 48.968 75.1698 48.968C76.7698 48.968 78.1564 49.3307 79.3298 50.056C80.5031 50.7813 81.4098 51.7627 82.0498 53C82.6898 54.216 83.0098 55.592 83.0098 57.128C83.0098 57.4053 82.9991 57.672 82.9778 57.928C82.9564 58.184 82.9351 58.3867 82.9138 58.536H70.9778V55.208H79.3298L78.7858 56.584C78.7858 55.4107 78.4871 54.4507 77.8898 53.704C77.3138 52.9573 76.4178 52.584 75.2018 52.584C74.1138 52.584 73.2391 52.9147 72.5778 53.576C71.9378 54.2373 71.6178 55.112 71.6178 56.2V57.96C71.6178 59.1333 71.9484 60.0507 72.6098 60.712C73.2924 61.352 74.2311 61.672 75.4258 61.672C76.4284 61.672 77.2178 61.4693 77.7938 61.064C78.3911 60.6587 78.8924 60.1573 79.2978 59.56L82.4658 61.32C81.7831 62.5787 80.8231 63.56 79.5858 64.264C78.3484 64.9467 76.8764 65.288 75.1698 65.288ZM94.6725 65L91.1525 59.464H92.3365L88.8485 65H83.6325L89.5845 56.424L89.6485 57.928L83.6965 49.352H88.9445L92.4005 54.856H91.0885L94.5765 49.352H99.8245L93.8405 57.928L93.9365 56.424L99.9205 65H94.6725ZM105.787 54.472H109.691C110.864 54.472 111.771 54.184 112.411 53.608C113.072 53.0107 113.403 52.1787 113.403 51.112C113.403 49.9813 113.072 49.1387 112.411 48.584C111.771 48.008 110.875 47.72 109.723 47.72H105.755L106.811 46.664V65H102.139V43.208H110.043C111.685 43.208 113.115 43.528 114.331 44.168C115.547 44.808 116.485 45.7253 117.147 46.92C117.829 48.0933 118.171 49.4907 118.171 51.112C118.171 52.7333 117.829 54.1413 117.147 55.336C116.485 56.5093 115.536 57.416 114.299 58.056C113.083 58.6747 111.664 58.984 110.043 58.984H105.787V54.472ZM125.741 65L118.349 43.208H123.117L129.357 61.8H127.533L133.805 43.208H138.509L131.085 65H125.741ZM11.12 94.616H21.36V98.936H11.12V94.616ZM6.352 103L14.096 81.208H19.248L26.608 103H21.872L15.92 84.408H17.456L11.056 103H6.352ZM38.2335 86.968C39.2788 86.968 40.1322 87.1493 40.7935 87.512C41.4548 87.8533 41.9562 88.3333 42.2975 88.952C42.6602 89.5707 42.8948 90.2747 43.0015 91.064C43.1295 91.832 43.1935 92.632 43.1935 93.464V103H38.5215V93.72C38.5215 92.824 38.3615 92.2373 38.0415 91.96C37.7215 91.6613 37.2948 91.512 36.7615 91.512C36.3135 91.512 35.8442 91.608 35.3535 91.8C34.8842 91.9707 34.4255 92.216 33.9775 92.536C33.5295 92.856 33.1348 93.2187 32.7935 93.624L31.9615 91.256H33.2735V103H28.6015V87.352H32.0575L33.0175 90.456L31.4175 90.328C31.9722 89.7093 32.6015 89.144 33.3055 88.632C34.0095 88.12 34.7775 87.7147 35.6095 87.416C36.4415 87.1173 37.3162 86.968 38.2335 86.968ZM50.9945 103.416C49.8638 103.416 48.8612 103.203 47.9865 102.776C47.1332 102.328 46.4718 101.709 46.0025 100.92C45.5332 100.131 45.2985 99.2133 45.2985 98.168C45.2985 97.0587 45.5545 96.12 46.0665 95.352C46.5785 94.5627 47.2612 93.9547 48.1145 93.528C48.9892 93.1013 49.9598 92.888 51.0265 92.888C52.5838 92.888 53.8425 93.24 54.8025 93.944C55.7625 94.648 56.4025 95.6613 56.7225 96.984L54.7065 96.632V92.984C54.7065 92.408 54.5038 91.9067 54.0985 91.48C53.6932 91.0533 53.0425 90.84 52.1465 90.84C51.5705 90.84 50.9092 90.9147 50.1625 91.064C49.4158 91.192 48.6478 91.448 47.8585 91.832L46.4825 88.504C47.4212 88.0347 48.4238 87.6613 49.4905 87.384C50.5785 87.1067 51.6878 86.968 52.8185 86.968C54.2692 86.968 55.4852 87.224 56.4665 87.736C57.4478 88.248 58.1732 88.9733 58.6425 89.912C59.1332 90.8507 59.3785 91.9387 59.3785 93.176V103H55.5705L54.6425 99.96L56.7225 99.32C56.3812 100.6 55.7305 101.603 54.7705 102.328C53.8105 103.053 52.5518 103.416 50.9945 103.416ZM52.4345 100.088C53.1385 100.088 53.6932 99.9067 54.0985 99.544C54.5252 99.1813 54.7385 98.7227 54.7385 98.168C54.7385 97.5707 54.5252 97.1013 54.0985 96.76C53.6932 96.4187 53.1385 96.248 52.4345 96.248C51.7305 96.248 51.1758 96.4187 50.7705 96.76C50.3652 97.1013 50.1625 97.5707 50.1625 98.168C50.1625 98.7227 50.3652 99.1813 50.7705 99.544C51.1758 99.9067 51.7305 100.088 52.4345 100.088ZM66.673 103.16C65.8837 103.16 65.1583 103 64.497 102.68C63.8357 102.36 63.3023 101.869 62.897 101.208C62.4917 100.525 62.289 99.6187 62.289 98.488V81.208H66.929V96.824C66.929 97.6133 67.0677 98.1253 67.345 98.36C67.6437 98.5733 68.017 98.68 68.465 98.68V103C68.2517 103.043 67.9637 103.075 67.601 103.096C67.2597 103.139 66.9503 103.16 66.673 103.16ZM75.3725 101.816L69.1005 87.352H73.8365L79.7885 101.112L75.3725 101.816ZM72.0125 109.08L81.4525 87.352H86.1885L76.7805 109.08H72.0125ZM95.047 103.256C93.319 103.256 91.9537 102.829 90.951 101.976C89.9697 101.123 89.479 99.7253 89.479 97.784V87.544L89.415 87.352L90.375 83.576H94.151V96.76C94.151 97.4853 94.3217 98.008 94.663 98.328C95.0043 98.6267 95.4523 98.776 96.007 98.776C96.327 98.776 96.6257 98.7547 96.903 98.712C97.2017 98.648 97.447 98.584 97.639 98.52V102.904C97.2763 103.011 96.8817 103.096 96.455 103.16C96.0497 103.224 95.5803 103.256 95.047 103.256ZM87.047 91.64V87.352H97.639V91.64H87.047ZM105.494 103H100.822V87.352H105.494V103ZM100.406 82.424C100.406 81.592 100.651 80.92 101.142 80.408C101.654 79.896 102.326 79.64 103.158 79.64C103.99 79.64 104.651 79.896 105.142 80.408C105.654 80.92 105.91 81.592 105.91 82.424C105.91 83.2347 105.654 83.896 105.142 84.408C104.651 84.8987 103.99 85.144 103.158 85.144C102.326 85.144 101.654 84.8987 101.142 84.408C100.651 83.896 100.406 83.2347 100.406 82.424ZM115.955 103.384C114.355 103.384 112.947 103.032 111.731 102.328C110.536 101.624 109.608 100.653 108.947 99.416C108.285 98.1787 107.955 96.76 107.955 95.16C107.955 93.56 108.285 92.152 108.947 90.936C109.608 89.6987 110.536 88.728 111.731 88.024C112.947 87.32 114.355 86.968 115.955 86.968C117.704 86.968 119.219 87.3947 120.499 88.248C121.779 89.1013 122.696 90.2533 123.251 91.704L119.027 93.592C118.728 92.9307 118.333 92.4187 117.843 92.056C117.352 91.672 116.733 91.48 115.987 91.48C115.048 91.48 114.259 91.8107 113.619 92.472C112.979 93.112 112.659 94.008 112.659 95.16C112.659 96.312 112.979 97.2187 113.619 97.88C114.259 98.52 115.048 98.84 115.987 98.84C116.733 98.84 117.352 98.6587 117.843 98.296C118.333 97.9333 118.728 97.4213 119.027 96.76L123.251 98.616C122.696 100.067 121.768 101.229 120.467 102.104C119.165 102.957 117.661 103.384 115.955 103.384ZM130.955 103.48C129.696 103.48 128.512 103.235 127.403 102.744C126.315 102.253 125.323 101.411 124.427 100.216L127.083 97.656C127.808 98.4027 128.501 98.936 129.163 99.256C129.824 99.576 130.549 99.736 131.339 99.736C131.808 99.736 132.181 99.64 132.459 99.448C132.757 99.2347 132.907 98.9787 132.907 98.68C132.907 98.424 132.821 98.2107 132.651 98.04C132.48 97.8693 132.16 97.6987 131.691 97.528C131.221 97.3573 130.539 97.1547 129.643 96.92C128 96.5147 126.773 95.928 125.963 95.16C125.173 94.3707 124.779 93.3253 124.779 92.024C124.779 91.0853 125.024 90.232 125.515 89.464C126.005 88.6747 126.709 88.0453 127.627 87.576C128.544 87.1067 129.632 86.872 130.891 86.872C132.384 86.872 133.653 87.16 134.699 87.736C135.744 88.2907 136.608 88.9733 137.291 89.784L134.411 92.248C133.941 91.8213 133.376 91.4587 132.715 91.16C132.053 90.8613 131.307 90.712 130.475 90.712C130.027 90.712 129.643 90.7973 129.323 90.968C129.003 91.1387 128.843 91.3947 128.843 91.736C128.843 92.056 129.035 92.3227 129.419 92.536C129.803 92.7493 130.571 92.9947 131.723 93.272C133.664 93.7413 135.051 94.3707 135.883 95.16C136.736 95.9493 137.163 97.0053 137.163 98.328C137.163 99.352 136.896 100.259 136.363 101.048C135.829 101.816 135.093 102.413 134.155 102.84C133.216 103.267 132.149 103.48 130.955 103.48Z" fill="white" shape-rendering="crispEdges"/>
</g>
<path d="M161.531 46.1992C163.945 47.5917 166.835 47.8969 169.486 47.0392V47.0392C174.147 45.5312 176.992 40.8271 176.162 35.999L176.133 35.8307C175.616 32.8258 173.763 30.218 171.095 28.7418L138.801 10.8718C135.262 8.91336 130.856 9.51628 127.973 12.3536V12.3536C126.281 14.0187 125.304 16.2772 125.249 18.6505L125.239 19.1017C125.152 22.8476 127.116 26.3423 130.362 28.2149L161.531 46.1992Z" fill="#D9D9D9" fill-opacity="0.5"/>
<path d="M161.531 46.1992C163.945 47.5917 166.835 47.8969 169.486 47.0392V47.0392C174.147 45.5312 176.992 40.8271 176.162 35.999L176.133 35.8307C175.616 32.8258 173.763 30.218 171.095 28.7418L138.801 10.8718C135.262 8.91336 130.856 9.51628 127.973 12.3536V12.3536C126.281 14.0187 125.304 16.2772 125.249 18.6505L125.239 19.1017C125.152 22.8476 127.116 26.3423 130.362 28.2149L161.531 46.1992Z" fill="#FFA500" fill-opacity="0.6"/>
<path d="M161.065 46.0013C166.112 49.2098 172.826 47.3487 175.5 42V42V42C177.759 36.9165 175.736 30.9501 170.851 28.2894L168.045 26.7612L160.531 22.8783L154.948 20.013C153.259 19.146 151.189 19.6591 150.1 21.2147L149.749 21.7164C149.006 22.7778 149.037 24.1987 149.827 25.2257V25.2257C151.328 27.1761 149.937 30 147.477 30L147.244 30C146.162 30 145.159 30.5677 144.603 31.4956L144.416 31.806C143.358 33.5693 143.932 35.8559 145.693 36.9185C147.272 37.8721 148.913 38.8704 149.246 39.1032C149.821 39.5044 154.927 42.2819 156.46 43.1138C156.75 43.2712 157.033 43.4374 157.311 43.6144L161.065 46.0013Z" fill="white" fill-opacity="0.75"/>
<defs>
<filter id="filter0_d_11_13584" x="2.224" y="43.208" width="140.285" height="73.872" filterUnits="userSpaceOnUse" color-interpolation-filters="sRGB">
<feFlood flood-opacity="0" result="BackgroundImageFix"/>
<feColorMatrix in="SourceAlpha" type="matrix" values="0 0 0 0 0 0 0 0 0 0 0 0 0 0 0 0 0 0 127 0" result="hardAlpha"/>
<feOffset dy="4"/>
<feGaussianBlur stdDeviation="2"/>
<feComposite in2="hardAlpha" operator="out"/>
<feColorMatrix type="matrix" values="0 0 0 0 0 0 0 0 0 0 0 0 0 0 0 0 0 0 0.25 0"/>
<feBlend mode="normal" in2="BackgroundImageFix" result="effect1_dropShadow_11_13584"/>
<feBlend mode="normal" in="SourceGraphic" in2="effect1_dropShadow_11_13584" result="shape"/>
</filter>
</defs>
</svg>
